<svg width="50" height="45" viewBox="0 0 463 419" fill="none" xmlns="http://www.w3.org/2000/svg">
<g clip-path="url(#clip0_25_589)">
<path d="M210.81 15.9817C200.609 24.6675 159.518 59.6189 119.548 93.6322C79.542 127.611 41.2359 160.234 34.3633 166.071C27.4906 171.908 17.7242 180.212 12.6602 184.485C7.59609 188.793 2.67672 192.997 1.73625 193.866L0 195.429L11.9367 208.284C18.4838 215.337 24.0905 221.104 24.3437 221.104C24.633 221.069 46.1553 203.003 72.1991 180.941C208.856 65.1778 230.921 46.5555 231.174 46.625C231.319 46.6945 248.175 60.9739 268.649 78.3801C289.086 95.7863 335.277 135.046 371.232 165.654C407.187 196.263 436.775 221.313 436.956 221.313C437.137 221.313 437.39 221.139 437.499 220.965C437.68 220.687 437.897 220.722 438.258 221C438.946 221.521 437.897 222.563 450.521 208.805C456.055 202.795 461.119 197.305 461.806 196.61L463.036 195.36L432.724 169.685C416.049 155.544 376.875 122.33 345.622 95.8905C314.406 69.4164 276.208 37.0707 260.727 23.9726L232.658 0.173697H231.03H229.402L210.81 15.9817Z" fill="#004879"/>
<path d="M206.433 95.8558C193.266 107.043 156.877 137.999 125.589 164.612L68.7266 213.009L68.7989 312.791L68.9074 412.573L69.7032 413.997C70.1373 414.796 71.1863 416.012 72.0182 416.672C75.0205 419.174 71.1501 419 128.483 419H180.136L180.208 374.772C180.317 330.788 180.317 330.579 181.076 329.016C182.017 327.001 183.825 325.264 185.923 324.36C187.551 323.631 187.804 323.631 230.198 323.526C277.366 323.422 275.34 323.353 278.017 325.611C279.898 327.209 280.947 328.981 281.381 331.274C281.67 332.664 281.779 347.047 281.779 376.162V419L335.458 418.931L389.173 418.826L390.258 417.819C390.873 417.263 391.886 415.63 392.537 414.171L393.731 411.53L393.803 312.165L393.876 212.801L312.851 144.183C266.912 105.271 231.5 75.5312 231.102 75.5312C230.632 75.4965 222.168 82.4798 206.433 95.8558Z" fill="#004879"/>
<path d="M229.547 157.199C229.524 157.23 229.094 157.519 228.584 157.821C225.182 159.862 222.661 162.737 220.694 166.829C218.468 171.437 217.588 176.499 218.06 182.002C218.311 184.962 218.939 187.654 220.056 190.513C221.529 194.299 223.628 197.478 226.291 199.937C233.821 206.89 244.014 206.337 250.621 198.61C252.997 195.829 254.971 191.723 255.864 187.702C257.78 179.071 255.624 169.229 250.405 162.834C245.624 156.98 239.132 154.521 232.642 156.11C231.596 156.361 229.613 157.064 229.547 157.199Z" fill="#399197"/>
<path d="M184.924 179.087C183.834 179.698 182.63 180.647 181.701 181.608C179.099 184.292 177.465 188.157 177.156 192.369C176.674 199.003 179.267 206.32 184.13 212.023C186.613 214.921 190.095 217.631 193.175 219.048C198.938 221.699 204.793 221.736 209.308 219.137C216.095 215.243 218.71 206.293 215.832 196.801C215.357 195.251 213.626 191.435 212.794 190.111C206.935 180.794 197.158 175.713 188.745 177.626C187.639 177.882 185.81 178.572 184.924 179.087Z" fill="#399197"/>
<path d="M164.478 221.502C162.231 222.797 160.2 225.122 159.265 227.484C157.923 230.852 157.9 234.696 159.164 239.03C159.702 240.874 160.044 241.765 160.56 242.636C160.838 243.116 161.292 243.895 161.566 244.367C164.491 249.492 169.462 254.091 175.039 256.852C176.665 257.647 180.354 258.88 181.908 259.129C186.048 259.808 189.402 259.443 192.484 257.975C198.533 255.089 201.007 248.261 198.805 240.479C198.387 239.033 197.109 236.082 196.263 234.668C190.101 224.262 177.956 217.878 168.361 220.015C167.349 220.231 165.336 221.01 164.478 221.502Z" fill="#399197"/>
<path d="M272.969 182.251C268.281 185.222 264.802 190.896 263.496 197.699C261.815 206.422 264.11 215.639 269.241 220.843C271.329 222.959 273.806 224.343 276.346 224.804C282.833 225.983 289.115 221.854 292.694 214.045C295.147 208.7 295.906 201.852 294.712 195.949C294.07 192.793 293.319 190.676 292.124 188.673C290.57 186.053 289.239 184.45 287.476 183.072C284.572 180.8 281.027 179.848 277.632 180.433C276.457 180.643 274.025 181.589 272.969 182.251Z" fill="#399197"/>
<path d="M229.72 229.672C224.663 232.18 219.24 235.848 216.974 238.283C215.613 239.758 214.834 241.071 212.611 245.571C211.47 247.881 210.255 250.191 209.918 250.697C208.713 252.512 206.672 255.129 202.9 259.709C197.992 265.658 195.495 268.992 194.498 270.921C193.054 273.702 193.553 278.574 195.701 282.62C197.289 285.609 199.537 288.042 201.943 289.403C205.505 291.406 211.051 292.621 216.372 292.553C224.435 292.444 233.209 290.485 246.061 285.909C248.318 285.1 255.244 282.515 258.766 281.16C260.359 280.548 262.493 279.739 263.5 279.365C265.847 278.508 269.111 277.124 270.943 276.208C271.724 275.823 273.218 275.093 274.255 274.589C284.223 269.752 291.176 264.399 295.15 258.505C296.082 257.116 297.436 254.47 297.941 253.059C299.328 249.192 297.732 244.624 293.515 240.357C290.846 237.655 287.872 236.171 282.971 235.088C282.198 234.914 279.768 234.45 277.576 234.055C269.609 232.628 268.537 232.271 261.905 228.73C258.418 226.876 257.034 226.246 254.969 225.573C252.363 224.723 250.534 224.517 247.585 224.71C244.223 224.94 240.677 225.632 237.07 226.757C235.609 227.217 230.968 229.057 229.72 229.672Z" fill="#399197"/>
</g>
<defs>
<clipPath id="clip0_25_589">
<rect width="463" height="419" fill="white"/>
</clipPath>
</defs>
</svg>
