<svg width="37" height="29" viewBox="0 0 37 29" fill="none" xmlns="http://www.w3.org/2000/svg">
<path d="M18.1043 3.46714C18.0996 3.47254 18.0133 3.52229 17.9109 3.57424C17.2276 3.92574 16.7213 4.42068 16.3262 5.12529C15.8791 5.91872 15.7023 6.79038 15.7972 7.73794C15.8476 8.24745 15.9738 8.711 16.198 9.20328C16.4939 9.85522 16.9154 10.4026 17.4504 10.826C18.9627 12.0232 21.0099 11.9279 22.3369 10.5975C22.8142 10.1186 23.2106 9.41173 23.3899 8.71936C23.7747 7.23318 23.3418 5.53864 22.2935 4.43751C21.3333 3.42945 20.0295 3.0061 18.726 3.27967C18.5158 3.32299 18.1174 3.44397 18.1043 3.46714Z" fill="#399197"/>
<path d="M9.14181 7.23591C8.92295 7.34125 8.6811 7.50461 8.49444 7.66996C7.9719 8.13218 7.64374 8.79774 7.58164 9.52287C7.48479 10.6652 8.0055 11.9251 8.9823 12.9069C9.48094 13.4061 10.1803 13.8727 10.7989 14.1167C11.9564 14.573 13.1325 14.5793 14.0393 14.1318C15.4025 13.4614 15.9277 11.9205 15.3496 10.2861C15.2543 10.0191 14.9066 9.36209 14.7394 9.13413C13.5627 7.52986 11.599 6.65497 9.90921 6.98442C9.68707 7.02842 9.31969 7.14731 9.14181 7.23591Z" fill="#399197"/>
<path d="M5.0353 14.5391C4.58396 14.7621 4.17612 15.1624 3.98829 15.5691C3.71871 16.149 3.71403 16.8109 3.96797 17.5572C4.07599 17.8747 4.14462 18.0281 4.24843 18.178C4.30419 18.2607 4.39533 18.3949 4.45032 18.4761C5.03785 19.3585 6.03634 20.1504 7.15649 20.6258C7.48304 20.7627 8.22401 20.9751 8.53601 21.0179C9.36764 21.1348 10.0412 21.0719 10.6602 20.8192C11.8751 20.3222 12.3719 19.1466 11.9298 17.8067C11.8459 17.5576 11.5892 17.0496 11.4193 16.8061C10.1817 15.0143 7.74221 13.9152 5.81522 14.2831C5.61187 14.3202 5.20768 14.4543 5.0353 14.5391Z" fill="#399197"/>
<path d="M26.8255 7.78086C25.8839 8.29248 25.1852 9.26937 24.9228 10.4407C24.5852 11.9428 25.0462 13.5297 26.0766 14.4258C26.4961 14.79 26.9937 15.0284 27.5037 15.1077C28.8067 15.3107 30.0685 14.5998 30.7871 13.2553C31.2798 12.3349 31.4323 11.1557 31.1925 10.1395C31.0637 9.59599 30.9127 9.23157 30.6728 8.88662C30.3606 8.43555 30.0932 8.15945 29.7391 7.92223C29.156 7.53106 28.4439 7.36702 27.762 7.46787C27.5261 7.504 27.0377 7.66693 26.8255 7.78086Z" fill="#399197"/>
<path d="M18.104 15.9586C17.0884 16.3905 15.9992 17.022 15.5441 17.4413C15.2707 17.6952 15.1142 17.9213 14.6677 18.6961C14.4385 19.094 14.1945 19.4917 14.1268 19.5788C13.8848 19.8912 13.4748 20.3419 12.7173 21.1305C11.7315 22.1548 11.2299 22.7289 11.0298 23.061C10.7397 23.5398 10.84 24.3788 11.2713 25.0753C11.5904 25.5901 12.0419 26.0089 12.5251 26.2433C13.2406 26.5882 14.3545 26.7973 15.4231 26.7857C17.0425 26.7669 18.8048 26.4295 21.3861 25.6416C21.8395 25.5024 23.2305 25.0573 23.9379 24.8239C24.2578 24.7186 24.6865 24.5793 24.8887 24.5149C25.3602 24.3674 26.0158 24.129 26.3836 23.9713C26.5405 23.905 26.8405 23.7794 27.0488 23.6926C29.051 22.8597 30.4473 21.938 31.2456 20.9232C31.4327 20.6841 31.7046 20.2284 31.8061 19.9855C32.0847 19.3196 31.7641 18.5331 30.9171 17.7984C30.381 17.3331 29.7838 17.0776 28.7995 16.8912C28.6442 16.8613 28.1561 16.7813 27.7158 16.7133C26.1157 16.4677 25.9004 16.4062 24.5683 15.7963C23.868 15.4772 23.59 15.3686 23.1753 15.2528C22.6519 15.1065 22.2844 15.071 21.6923 15.1043C21.017 15.1439 20.3048 15.2631 19.5802 15.4567C19.2868 15.5358 18.3547 15.8527 18.104 15.9586Z" fill="#399197"/>
</svg>
