<svg width="37" height="29" viewBox="0 0 37 29" fill="none" xmlns="http://www.w3.org/2000/svg">
<path d="M18.1042 3.46714C18.0995 3.47254 18.0133 3.52229 17.9109 3.57424C17.2275 3.92574 16.7212 4.42068 16.3261 5.12529C15.879 5.91872 15.7022 6.79038 15.7972 7.73794C15.8475 8.24745 15.9737 8.711 16.1979 9.20328C16.4938 9.85522 16.9153 10.4026 17.4504 10.826C18.9626 12.0232 21.0099 11.9279 22.3368 10.5975C22.8141 10.1186 23.2105 9.41173 23.3898 8.71936C23.7747 7.23318 23.3417 5.53864 22.2935 4.43751C21.3332 3.42945 20.0294 3.0061 18.7259 3.27967C18.5158 3.32299 18.1174 3.44397 18.1042 3.46714Z" fill="#399197"/>
<path d="M9.14175 7.23591C8.92289 7.34125 8.68103 7.50461 8.49437 7.66996C7.97183 8.13218 7.64367 8.79774 7.58158 9.52287C7.48473 10.6652 8.00544 11.9251 8.98224 12.9069C9.48088 13.4061 10.1802 13.8727 10.7989 14.1167C11.9564 14.573 13.1324 14.5793 14.0393 14.1318C15.4024 13.4614 15.9277 11.9205 15.3495 10.2861C15.2542 10.0191 14.9065 9.36209 14.7394 9.13413C13.5626 7.52986 11.5989 6.65497 9.90915 6.98442C9.68701 7.02842 9.31963 7.14731 9.14175 7.23591Z" fill="#399197"/>
<path d="M5.03554 14.5391C4.58421 14.7621 4.17636 15.1624 3.98854 15.5691C3.71896 16.149 3.71427 16.8109 3.96821 17.5572C4.07624 17.8747 4.14486 18.0281 4.24867 18.178C4.30444 18.2607 4.39558 18.3949 4.45057 18.4761C5.03809 19.3585 6.03658 20.1504 7.15674 20.6258C7.48329 20.7627 8.22425 20.9751 8.53625 21.0179C9.36789 21.1348 10.0415 21.0719 10.6604 20.8192C11.8754 20.3222 12.3722 19.1466 11.9301 17.8067C11.8461 17.5576 11.5895 17.0496 11.4196 16.8061C10.1819 15.0143 7.74246 13.9152 5.81547 14.2831C5.61212 14.3202 5.20792 14.4543 5.03554 14.5391Z" fill="#399197"/>
<path d="M26.8253 7.78086C25.8837 8.29248 25.185 9.26937 24.9226 10.4407C24.5851 11.9428 25.046 13.5297 26.0765 14.4258C26.4959 14.79 26.9935 15.0284 27.5035 15.1077C28.8065 15.3107 30.0683 14.5998 30.7869 13.2553C31.2796 12.3349 31.4322 11.1557 31.1923 10.1395C31.0635 9.59599 30.9125 9.23157 30.6726 8.88662C30.3604 8.43555 30.093 8.15945 29.7389 7.92223C29.1558 7.53106 28.4437 7.36702 27.7618 7.46787C27.526 7.504 27.0375 7.66693 26.8253 7.78086Z" fill="#399197"/>
<path d="M18.1043 15.9586C17.0887 16.3905 15.9995 17.022 15.5444 17.4413C15.271 17.6952 15.1144 17.9213 14.6679 18.6961C14.4387 19.094 14.1947 19.4917 14.127 19.5788C13.8851 19.8912 13.4751 20.3419 12.7175 21.1305C11.7318 22.1548 11.2302 22.7289 11.03 23.061C10.74 23.5398 10.8402 24.3788 11.2716 25.0753C11.5907 25.5901 12.0421 26.0089 12.5254 26.2433C13.2408 26.5882 14.3547 26.7973 15.4233 26.7857C17.0428 26.7669 18.805 26.4295 21.3863 25.6416C21.8398 25.5024 23.2307 25.0573 23.9381 24.8239C24.258 24.7186 24.6867 24.5793 24.8889 24.5149C25.3604 24.3674 26.016 24.129 26.3839 23.9713C26.5408 23.905 26.8408 23.7794 27.0491 23.6926C29.0512 22.8597 30.4476 21.938 31.2458 20.9232C31.4329 20.6841 31.7049 20.2284 31.8063 19.9855C32.085 19.3196 31.7644 18.5331 30.9174 17.7984C30.3813 17.3331 29.7841 17.0776 28.7997 16.8912C28.6444 16.8613 28.1563 16.7813 27.7161 16.7133C26.1159 16.4677 25.9006 16.4062 24.5685 15.7963C23.8683 15.4772 23.5903 15.3686 23.1756 15.2528C22.6522 15.1065 22.2847 15.071 21.6925 15.1043C21.0173 15.1439 20.3051 15.2631 19.5805 15.4567C19.287 15.5358 18.3549 15.8527 18.1043 15.9586Z" fill="#399197"/>
</svg>
