<svg width="37" height="34" viewBox="0 0 37 34" fill="none" xmlns="http://www.w3.org/2000/svg">
<path d="M18.1042 4.53816C18.0995 4.54445 18.0133 4.60249 17.9109 4.66308C17.2275 5.0731 16.7212 5.65045 16.3261 6.47235C15.879 7.39787 15.7022 8.41464 15.7972 9.51996C15.8475 10.1143 15.9737 10.655 16.1979 11.2292C16.4938 11.9897 16.9153 12.6283 17.4504 13.1221C18.9626 14.5186 21.0099 14.4075 22.3368 12.8556C22.8141 12.297 23.2105 11.4724 23.3898 10.6648C23.7747 8.93116 23.3417 6.95452 22.2935 5.67008C21.3332 4.49419 20.0294 4.00037 18.7259 4.31948C18.5158 4.37001 18.1174 4.51112 18.1042 4.53816Z" fill="#399197"/>
<path d="M9.14175 8.93435C8.92289 9.05723 8.68104 9.24778 8.49438 9.44067C7.97184 9.97984 7.64368 10.7562 7.58158 11.602C7.48473 12.9346 8.00544 14.4042 8.98224 15.5495C9.48088 16.1317 10.1802 16.676 10.7989 16.9606C11.9564 17.4929 13.1324 17.5003 14.0393 16.9783C15.4024 16.1962 15.9277 14.3988 15.3495 12.4923C15.2542 12.1809 14.9065 11.4145 14.7394 11.1486C13.5626 9.27724 11.5989 8.2567 9.90915 8.641C9.68701 8.69232 9.31963 8.83101 9.14175 8.93435Z" fill="#399197"/>
<path d="M5.03554 17.4533C4.58421 17.7134 4.17636 18.1804 3.98854 18.6548C3.71896 19.3312 3.71427 20.1034 3.96821 20.9739C4.07624 21.3442 4.14487 21.5232 4.24867 21.698C4.30444 21.7945 4.39558 21.9511 4.45057 22.0457C5.03809 23.0751 6.03658 23.9988 7.15674 24.5533C7.48329 24.713 8.22425 24.9607 8.53625 25.0107C9.36789 25.1471 10.0415 25.0737 10.6604 24.779C11.8754 24.1992 12.3722 22.8279 11.9301 21.2649C11.8461 20.9744 11.5895 20.3817 11.4196 20.0977C10.1819 18.0076 7.74246 16.7255 5.81547 17.1547C5.61212 17.198 5.20792 17.3545 5.03554 17.4533Z" fill="#399197"/>
<path d="M26.8253 9.56989C25.8837 10.1667 25.185 11.3062 24.9226 12.6725C24.5851 14.4247 25.046 16.2757 26.0765 17.321C26.4959 17.7459 26.9935 18.024 27.5035 18.1165C28.8065 18.3533 30.0683 17.5241 30.7869 15.9557C31.2796 14.8821 31.4322 13.5066 31.1923 12.3212C31.0635 11.6872 30.9125 11.2621 30.6726 10.8597C30.3604 10.3336 30.093 10.0115 29.7389 9.73479C29.1558 9.2785 28.4437 9.08716 27.7619 9.20479C27.526 9.24693 27.0375 9.43699 26.8253 9.56989Z" fill="#399197"/>
<path d="M18.1389 19.0943C17.1233 19.5981 16.0341 20.3347 15.579 20.8238C15.3057 21.12 15.1491 21.3838 14.7026 22.2876C14.4734 22.7516 14.2294 23.2156 14.1617 23.3172C13.9197 23.6816 13.5098 24.2073 12.7522 25.1272C11.7664 26.322 11.2649 26.9917 11.0647 27.3791C10.7746 27.9377 10.8749 28.9163 11.3062 29.7287C11.6253 30.3292 12.0768 30.8177 12.5601 31.0911C13.2755 31.4934 14.3894 31.7374 15.458 31.7239C17.0775 31.702 18.8397 31.3084 21.421 30.3893C21.8744 30.227 23.2654 29.7077 23.9728 29.4355C24.2927 29.3127 24.7214 29.1502 24.9236 29.0751C25.3951 28.903 26.0507 28.6249 26.4185 28.4409C26.5754 28.3637 26.8754 28.2171 27.0838 28.1158C29.0859 27.1442 30.4823 26.0692 31.2805 24.8853C31.4676 24.6065 31.7395 24.0749 31.841 23.7916C32.1196 23.0148 31.799 22.0974 30.952 21.2404C30.4159 20.6976 29.8187 20.3996 28.8344 20.1822C28.6791 20.1472 28.191 20.0539 27.7507 19.9747C26.1506 19.6881 25.9353 19.6164 24.6032 18.905C23.9029 18.5327 23.6249 18.4061 23.2102 18.271C22.6868 18.1004 22.3193 18.0589 21.7272 18.0977C21.0519 18.1439 20.3397 18.283 19.6151 18.5088C19.3217 18.6011 18.3896 18.9708 18.1389 19.0943Z" fill="#399197"/>
</svg>
