<svg width="93" height="85" viewBox="0 0 93 85" fill="none" xmlns="http://www.w3.org/2000/svg">
<path d="M42.3407 3.17502C40.292 4.91953 32.0389 11.9395 24.011 18.771C15.9759 25.5955 8.28216 32.1479 6.9018 33.3202C5.52144 34.4925 3.55988 36.1603 2.54277 37.0186C1.52566 37.8839 0.537614 38.7282 0.348723 38.9027L0 39.2167L2.39747 41.7986C3.71244 43.2151 4.83853 44.3735 4.88938 44.3735C4.9475 44.3665 9.27021 40.7379 14.501 36.3068C41.9484 13.0559 46.3801 9.31571 46.431 9.32966C46.46 9.34362 49.8455 12.2116 53.9576 15.7076C58.0623 19.2036 67.3398 27.0888 74.5613 33.2365C81.7827 39.3842 87.7255 44.4153 87.7619 44.4153C87.7982 44.4153 87.849 44.3805 87.8708 44.3456C87.9072 44.2897 87.9508 44.2967 88.0234 44.3525C88.1614 44.4572 87.9508 44.6666 90.4863 41.9032C91.5978 40.696 92.6149 39.5935 92.753 39.4539L93 39.2027L86.9118 34.0459C83.5627 31.2059 75.6946 24.5349 69.4176 19.2246C63.1479 13.9073 55.476 7.4107 52.3665 4.77997L46.7288 4.73578e-07H46.4019H46.075L42.3407 3.17502Z" fill="#004879"/>
<path d="M41.4617 19.2176C38.8172 21.4645 31.5085 27.682 25.2243 33.0271L13.8036 42.7476L13.8181 62.7886L13.8399 82.8295L13.9997 83.1156C14.0869 83.2761 14.2976 83.5204 14.4647 83.653C15.0677 84.1554 14.2903 84.1205 25.8055 84.1205H36.18L36.1945 75.2374C36.2163 66.4032 36.2163 66.3613 36.3688 66.0473C36.5577 65.6426 36.921 65.2937 37.3424 65.1123C37.6693 64.9657 37.7202 64.9657 46.2348 64.9448C55.7084 64.9238 55.3016 64.9099 55.8392 65.3635C56.217 65.6845 56.4277 66.0403 56.5148 66.5009C56.573 66.78 56.5948 69.6689 56.5948 75.5165V84.1205L67.3761 84.1065L78.1647 84.0856L78.3827 83.8832C78.5062 83.7716 78.7096 83.4436 78.8404 83.1505L79.0801 82.6202L79.0946 62.663L79.1092 42.7057L62.8354 28.924C53.6088 21.1086 46.4963 15.1354 46.4164 15.1354C46.322 15.1284 44.622 16.531 41.4617 19.2176Z" fill="#004879"/>
</svg>
