<svg width="93" height="73" viewBox="0 0 93 73" fill="none" xmlns="http://www.w3.org/2000/svg">
<path d="M42.3407 3.15175C40.292 4.64729 32.0389 10.6653 24.011 16.5219C15.9759 22.3724 8.28216 27.9897 6.9018 28.9947C5.52144 29.9997 3.55988 31.4294 2.54277 32.1653C1.52566 32.907 0.537614 33.6309 0.348723 33.7804L0 34.0496L2.39747 36.263C3.71244 37.4774 4.83853 38.4705 4.88938 38.4705C4.9475 38.4645 9.27021 35.3537 14.501 31.5551C41.9484 11.6225 46.3801 8.41605 46.431 8.42802C46.46 8.43998 49.8455 10.8987 53.9576 13.8957C58.0623 16.8928 67.3398 23.6526 74.5613 28.9229C81.7827 34.1932 87.7255 38.5063 87.7619 38.5063C87.7982 38.5063 87.849 38.4764 87.8708 38.4465C87.9072 38.3987 87.9508 38.4047 88.0234 38.4525C88.1614 38.5422 87.9508 38.7217 90.4863 36.3528C91.5978 35.3179 92.6149 34.3727 92.753 34.253L93 34.0377L86.9118 29.6168C83.5627 27.1821 75.6946 21.4632 69.4176 16.9107C63.1479 12.3523 55.476 6.78292 52.3665 4.52765L46.7288 0.429863H46.4019H46.075L42.3407 3.15175Z" fill="#004879"/>
<path d="M41.4618 16.9046C38.8173 18.8309 31.5086 24.161 25.2244 28.7433L13.8037 37.0764L13.8182 54.257L13.84 71.4377L13.9999 71.6829C14.087 71.8205 14.2977 72.0299 14.4648 72.1436C15.0678 72.5743 14.2905 72.5444 25.8056 72.5444H36.1801L36.1946 64.9291C36.2164 57.3557 36.2164 57.3199 36.369 57.0507C36.5579 56.7037 36.9211 56.4046 37.3425 56.2491C37.6694 56.1234 37.7203 56.1234 46.2349 56.1055C55.7085 56.0875 55.3017 56.0756 55.8393 56.4644C56.2171 56.7396 56.4278 57.0447 56.515 57.4395C56.5731 57.6788 56.5949 60.1554 56.5949 65.1684V72.5444L67.3762 72.5324L78.1648 72.5144L78.3828 72.341C78.5063 72.2452 78.7097 71.9641 78.8405 71.7128L79.0802 71.2582L79.0948 54.1493L79.1093 37.0405L62.8356 25.2258C53.6089 18.5258 46.4965 13.4051 46.4165 13.4051C46.3221 13.3991 44.6221 14.6015 41.4618 16.9046Z" fill="#004879"/>
</svg>
