<svg width="37" height="34" viewBox="0 0 37 34" fill="none" xmlns="http://www.w3.org/2000/svg">
<path d="M18.1042 4.53816C18.0995 4.54445 18.0133 4.60249 17.9109 4.66308C17.2275 5.0731 16.7212 5.65045 16.3261 6.47235C15.879 7.39787 15.7022 8.41464 15.7972 9.51996C15.8475 10.1143 15.9737 10.655 16.1979 11.2292C16.4938 11.9897 16.9153 12.6283 17.4504 13.1221C18.9626 14.5186 21.0099 14.4075 22.3368 12.8556C22.8141 12.297 23.2105 11.4724 23.3898 10.6648C23.7747 8.93116 23.3417 6.95452 22.2935 5.67008C21.3332 4.49419 20.0294 4.00037 18.7259 4.31948C18.5158 4.37001 18.1174 4.51112 18.1042 4.53816Z" fill="#399197"/>
<path d="M9.14224 8.93435C8.92338 9.05723 8.68152 9.24778 8.49486 9.44067C7.97232 9.97984 7.64416 10.7562 7.58207 11.602C7.48522 12.9346 8.00593 14.4042 8.98273 15.5495C9.48137 16.1317 10.1807 16.676 10.7994 16.9606C11.9569 17.4929 13.1329 17.5003 14.0398 16.9783C15.4029 16.1962 15.9281 14.3988 15.35 12.4923C15.2547 12.1809 14.907 11.4145 14.7399 11.1486C13.5631 9.27724 11.5994 8.2567 9.90964 8.641C9.6875 8.69232 9.32012 8.83101 9.14224 8.93435Z" fill="#399197"/>
<path d="M5.03505 17.4533C4.58372 17.7134 4.17587 18.1804 3.98805 18.6548C3.71847 19.3312 3.71378 20.1034 3.96772 20.9739C4.07575 21.3442 4.14438 21.5232 4.24818 21.698C4.30395 21.7945 4.39509 21.9511 4.45008 22.0457C5.0376 23.0751 6.0361 23.9988 7.15625 24.5533C7.4828 24.713 8.22376 24.9607 8.53576 25.0107C9.3674 25.1471 10.041 25.0737 10.6599 24.779C11.8749 24.1992 12.3717 22.8279 11.9296 21.2649C11.8456 20.9744 11.589 20.3817 11.4191 20.0977C10.1814 18.0076 7.74197 16.7255 5.81498 17.1547C5.61163 17.198 5.20744 17.3545 5.03505 17.4533Z" fill="#399197"/>
<path d="M26.8258 9.56989C25.8842 10.1667 25.1855 11.3062 24.9231 12.6725C24.5855 14.4247 25.0465 16.2757 26.0769 17.321C26.4964 17.7459 26.994 18.024 27.504 18.1165C28.807 18.3533 30.0688 17.5241 30.7874 15.9557C31.2801 14.8821 31.4326 13.5066 31.1928 12.3212C31.064 11.6872 30.913 11.2621 30.6731 10.8597C30.3609 10.3336 30.0935 10.0115 29.7394 9.73479C29.1563 9.2785 28.4442 9.08716 27.7623 9.20479C27.5264 9.24693 27.038 9.43699 26.8258 9.56989Z" fill="#399197"/>
<path d="M18.1389 19.0943C17.1233 19.5981 16.0341 20.3347 15.579 20.8238C15.3057 21.12 15.1491 21.3838 14.7026 22.2876C14.4734 22.7516 14.2294 23.2156 14.1617 23.3172C13.9197 23.6816 13.5098 24.2073 12.7522 25.1272C11.7664 26.322 11.2649 26.9917 11.0647 27.3791C10.7746 27.9377 10.8749 28.9163 11.3062 29.7287C11.6253 30.3292 12.0768 30.8177 12.5601 31.0911C13.2755 31.4934 14.3894 31.7374 15.458 31.7239C17.0775 31.702 18.8397 31.3084 21.421 30.3893C21.8744 30.227 23.2654 29.7077 23.9728 29.4355C24.2927 29.3127 24.7214 29.1502 24.9236 29.0751C25.3951 28.903 26.0507 28.6249 26.4185 28.4409C26.5754 28.3637 26.8754 28.2171 27.0838 28.1158C29.0859 27.1442 30.4823 26.0692 31.2805 24.8853C31.4676 24.6065 31.7395 24.0749 31.841 23.7916C32.1196 23.0148 31.799 22.0974 30.952 21.2404C30.4159 20.6976 29.8187 20.3996 28.8344 20.1822C28.6791 20.1472 28.191 20.0539 27.7507 19.9747C26.1506 19.6881 25.9353 19.6164 24.6032 18.905C23.9029 18.5327 23.6249 18.4061 23.2102 18.271C22.6868 18.1004 22.3193 18.0589 21.7272 18.0977C21.0519 18.1439 20.3397 18.283 19.6151 18.5088C19.3217 18.6011 18.3896 18.9708 18.1389 19.0943Z" fill="#399197"/>
</svg>
