<svg width="37" height="34" viewBox="0 0 37 34" fill="none" xmlns="http://www.w3.org/2000/svg">
<path d="M18.1041 4.53816C18.0994 4.54445 18.0132 4.60248 17.9108 4.66308C17.2274 5.0731 16.7211 5.65045 16.326 6.47235C15.8789 7.39787 15.7021 8.41464 15.797 9.51996C15.8474 10.1143 15.9736 10.655 16.1978 11.2292C16.4937 11.9897 16.9152 12.6283 17.4502 13.1221C18.9625 14.5186 21.0098 14.4075 22.3367 12.8556C22.814 12.297 23.2104 11.4724 23.3897 10.6648C23.7746 8.93116 23.3416 6.95452 22.2933 5.67008C21.3331 4.49419 20.0293 4.00037 18.7258 4.31948C18.5156 4.37001 18.1173 4.51112 18.1041 4.53816Z" fill="#399197"/>
<path d="M9.14163 8.93435C8.92277 9.05723 8.68091 9.24778 8.49425 9.44067C7.97171 9.97984 7.64355 10.7562 7.58146 11.602C7.48461 12.9346 8.00532 14.4042 8.98212 15.5495C9.48076 16.1317 10.1801 16.676 10.7988 16.9606C11.9563 17.4929 13.1323 17.5003 14.0392 16.9783C15.4023 16.1962 15.9275 14.3988 15.3494 12.4923C15.2541 12.1809 14.9064 11.4145 14.7392 11.1486C13.5625 9.27724 11.5988 8.2567 9.90903 8.641C9.68689 8.69232 9.31951 8.83101 9.14163 8.93435Z" fill="#399197"/>
<path d="M5.03511 17.4533C4.58378 17.7134 4.17593 18.1804 3.98811 18.6548C3.71853 19.3312 3.71384 20.1034 3.96778 20.9739C4.07581 21.3442 4.14444 21.5232 4.24825 21.698C4.30401 21.7945 4.39515 21.9511 4.45014 22.0457C5.03766 23.0751 6.03616 23.9988 7.15631 24.5533C7.48286 24.713 8.22382 24.9607 8.53582 25.0107C9.36746 25.1471 10.041 25.0737 10.66 24.779C11.875 24.1992 12.3718 22.8279 11.9296 21.2649C11.8457 20.9744 11.589 20.3817 11.4191 20.0977C10.1815 18.0076 7.74203 16.7255 5.81504 17.1547C5.61169 17.198 5.2075 17.3545 5.03511 17.4533Z" fill="#399197"/>
<path d="M26.8253 9.56989C25.8837 10.1667 25.185 11.3062 24.9226 12.6725C24.5851 14.4247 25.046 16.2757 26.0765 17.321C26.4959 17.7459 26.9935 18.024 27.5035 18.1165C28.8065 18.3533 30.0683 17.5241 30.7869 15.9557C31.2796 14.8821 31.4322 13.5066 31.1923 12.3212C31.0635 11.6872 30.9125 11.2621 30.6726 10.8597C30.3604 10.3336 30.093 10.0115 29.7389 9.73479C29.1558 9.2785 28.4437 9.08716 27.7619 9.20479C27.526 9.24693 27.0375 9.43699 26.8253 9.56989Z" fill="#399197"/>
<path d="M18.1388 19.0943C17.1232 19.5981 16.034 20.3347 15.5789 20.8238C15.3055 21.12 15.149 21.3838 14.7025 22.2876C14.4733 22.7516 14.2293 23.2156 14.1616 23.3172C13.9196 23.6816 13.5096 24.2073 12.7521 25.1272C11.7663 26.322 11.2647 26.9917 11.0646 27.3791C10.7745 27.9377 10.8748 28.9163 11.3061 29.7287C11.6252 30.3292 12.0767 30.8177 12.5599 31.0911C13.2754 31.4934 14.3893 31.7374 15.4579 31.7239C17.0773 31.702 18.8395 31.3084 21.4209 30.3893C21.8743 30.227 23.2653 29.7077 23.9727 29.4355C24.2926 29.3127 24.7213 29.1502 24.9235 29.0751C25.3949 28.903 26.0505 28.6249 26.4184 28.4409C26.5753 28.3637 26.8753 28.2171 27.0836 28.1158C29.0858 27.1442 30.4821 26.0692 31.2803 24.8853C31.4674 24.6065 31.7394 24.0749 31.8408 23.7916C32.1195 23.0148 31.7989 22.0974 30.9519 21.2404C30.4158 20.6976 29.8186 20.3996 28.8342 20.1822C28.6789 20.1472 28.1909 20.0539 27.7506 19.9747C26.1504 19.6881 25.9352 19.6164 24.603 18.905C23.9028 18.5327 23.6248 18.4061 23.2101 18.271C22.6867 18.1004 22.3192 18.0589 21.7271 18.0977C21.0518 18.1439 20.3396 18.283 19.615 18.5088C19.3216 18.6011 18.3894 18.9708 18.1388 19.0943Z" fill="#399197"/>
</svg>
