<svg width="463" height="419" viewBox="0 0 463 419" fill="none" xmlns="http://www.w3.org/2000/svg">
<path d="M280.341 222.175C278.292 223.92 270.039 230.939 262.011 237.771C253.976 244.596 246.282 251.148 244.902 252.32C243.521 253.493 241.56 255.16 240.543 256.019C239.526 256.884 238.538 257.728 238.349 257.903L238 258.217L240.397 260.799C241.712 262.215 242.839 263.373 242.889 263.373C242.948 263.366 247.27 259.738 252.501 255.307C279.948 232.056 284.38 228.316 284.431 228.33C284.46 228.344 287.846 231.212 291.958 234.708C296.062 238.204 305.34 246.089 312.561 252.236C319.783 258.384 325.726 263.415 325.762 263.415C325.798 263.415 325.849 263.38 325.871 263.346C325.907 263.29 325.951 263.297 326.023 263.353C326.161 263.457 325.951 263.667 328.486 260.903C329.598 259.696 330.615 258.594 330.753 258.454L331 258.203L324.912 253.046C321.563 250.206 313.695 243.535 307.418 238.225C301.148 232.907 293.476 226.411 290.367 223.78L284.729 219H284.402H284.075L280.341 222.175Z" fill="#004879"/>
<path d="M279.462 238.218C276.817 240.465 269.509 246.682 263.224 252.027L251.804 261.748L251.818 281.789L251.84 301.83L252 302.116C252.087 302.276 252.298 302.52 252.465 302.653C253.068 303.155 252.29 303.12 263.805 303.12H274.18L274.194 294.237C274.216 285.403 274.216 285.361 274.369 285.047C274.558 284.643 274.921 284.294 275.342 284.112C275.669 283.966 275.72 283.966 284.235 283.945C293.708 283.924 293.302 283.91 293.839 284.363C294.217 284.684 294.428 285.04 294.515 285.501C294.573 285.78 294.595 288.669 294.595 294.517V303.12L305.376 303.107L316.165 303.086L316.383 302.883C316.506 302.772 316.71 302.444 316.84 302.151L317.08 301.62L317.095 281.663L317.109 261.706L300.835 247.924C291.609 240.109 284.496 234.135 284.416 234.135C284.322 234.128 282.622 235.531 279.462 238.218Z" fill="#004879"/>
<path d="M284.104 250.538C284.099 250.544 284.013 250.602 283.911 250.663C283.227 251.073 282.721 251.65 282.326 252.472C281.879 253.398 281.702 254.415 281.797 255.52C281.847 256.114 281.974 256.655 282.198 257.229C282.494 257.99 282.915 258.628 283.45 259.122C284.963 260.519 287.01 260.407 288.337 258.856C288.814 258.297 289.21 257.472 289.39 256.665C289.775 254.931 289.342 252.955 288.293 251.67C287.333 250.494 286.029 250 284.726 250.319C284.516 250.37 284.117 250.511 284.104 250.538Z" fill="#399197"/>
<path d="M275.142 254.934C274.923 255.057 274.681 255.248 274.494 255.441C273.972 255.98 273.644 256.756 273.581 257.602C273.485 258.935 274.005 260.404 274.982 261.549C275.481 262.132 276.18 262.676 276.799 262.961C277.956 263.493 279.132 263.5 280.039 262.978C281.402 262.196 281.928 260.399 281.349 258.492C281.254 258.181 280.906 257.414 280.739 257.149C279.562 255.277 277.599 254.257 275.909 254.641C275.687 254.692 275.32 254.831 275.142 254.934Z" fill="#399197"/>
<path d="M271.035 263.453C270.584 263.713 270.176 264.18 269.988 264.655C269.719 265.331 269.714 266.103 269.968 266.974C270.076 267.344 270.144 267.523 270.248 267.698C270.304 267.794 270.395 267.951 270.45 268.046C271.038 269.075 272.036 269.999 273.156 270.553C273.483 270.713 274.224 270.961 274.536 271.011C275.367 271.147 276.041 271.074 276.66 270.779C277.875 270.199 278.372 268.828 277.93 267.265C277.846 266.974 277.589 266.382 277.419 266.098C276.181 264.008 273.742 262.726 271.815 263.155C271.612 263.198 271.207 263.354 271.035 263.453Z" fill="#399197"/>
<path d="M292.825 255.57C291.884 256.167 291.185 257.306 290.923 258.673C290.585 260.425 291.046 262.276 292.076 263.321C292.496 263.746 292.994 264.024 293.503 264.117C294.806 264.353 296.068 263.524 296.787 261.956C297.28 260.882 297.432 259.507 297.192 258.321C297.063 257.687 296.913 257.262 296.673 256.86C296.36 256.334 296.093 256.012 295.739 255.735C295.156 255.279 294.444 255.087 293.762 255.205C293.526 255.247 293.037 255.437 292.825 255.57Z" fill="#399197"/>
<path d="M284.139 265.094C283.123 265.598 282.034 266.335 281.579 266.824C281.306 267.12 281.149 267.384 280.702 268.288C280.473 268.752 280.229 269.216 280.162 269.317C279.92 269.682 279.51 270.207 278.752 271.127C277.766 272.322 277.265 272.992 277.065 273.379C276.775 273.938 276.875 274.916 277.306 275.729C277.625 276.329 278.077 276.818 278.56 277.091C279.275 277.493 280.389 277.737 281.458 277.724C283.077 277.702 284.84 277.308 287.421 276.389C287.874 276.227 289.265 275.708 289.973 275.436C290.293 275.313 290.721 275.15 290.923 275.075C291.395 274.903 292.051 274.625 292.418 274.441C292.575 274.364 292.875 274.217 293.084 274.116C295.086 273.144 296.482 272.069 297.28 270.885C297.467 270.606 297.739 270.075 297.841 269.792C298.12 269.015 297.799 268.097 296.952 267.24C296.416 266.698 295.819 266.4 294.834 266.182C294.679 266.147 294.191 266.054 293.751 265.975C292.15 265.688 291.935 265.616 290.603 264.905C289.903 264.533 289.625 264.406 289.21 264.271C288.687 264.1 288.319 264.059 287.727 264.098C287.052 264.144 286.34 264.283 285.615 264.509C285.322 264.601 284.389 264.971 284.139 265.094Z" fill="#399197"/>
</svg>
